<?xml version="1.0" encoding="utf-8"?>
<!-- Generator: Adobe Illustrator 26.5.0, SVG Export Plug-In . SVG Version: 6.00 Build 0)  -->
<svg version="1.1" id="Layer_1" xmlns="http://www.w3.org/2000/svg" xmlns:xlink="http://www.w3.org/1999/xlink" x="0px" y="0px"
	 viewBox="0 0 360 116.4" style="enable-background:new 0 0 360 116.4;" xml:space="preserve">
<style type="text/css">
	.st0{fill:none;stroke:#AD4C42;stroke-width:2.5;stroke-miterlimit:10;}
	.st1{fill:none;stroke:#AD4C42;stroke-width:2.4591;stroke-miterlimit:10;}
	.st2{fill:none;stroke:#AD4C42;stroke-width:2;stroke-miterlimit:10;}
	.st3{fill:#D2A06A;}
	.st4{fill:#AD4C42;}
	.st5{fill:#E3CB9D;}
</style>
<path class="st0" d="M26.1,20h14.6c0,0,4.1-6.8-4.8-7.4C25.2,11.9,22.2,15.6,26.1,20z"/>
<path class="st1" d="M26.1,77.9c1.6,0.5,10.5,1.1,14.5,0c0.1,0,0.3,0,0.3,0.2c0.1,2.8,1.9,7.6-2,7.7c-4,0.1-10-0.1-10-0.1
	s-3.4,0.3-3.3-3c0-2.8,0.2-4.1,0.3-4.6C25.9,77.9,26,77.9,26.1,77.9z"/>
<path class="st2" d="M32.6,96.6h1.8c0.4,0,0.7,0.2,0.7,0.5l1,7.2c0,0.3-0.3,0.7-0.7,0.7h-3.9c-0.4,0-0.8-0.3-0.7-0.7l1.1-7.2
	C32,96.9,32.3,96.6,32.6,96.6z"/>
<ellipse class="st3" cx="33.5" cy="91.1" rx="2.8" ry="2.8"/>
<g>
	<path class="st3" d="M114,73.7c-0.4,0.5-0.9,0.9-1.5,1.2s-1.2,0.5-1.6,0.5c-0.3,0-0.6,0-1,0s-0.8,0-1.3,0c-0.4,0-0.9,0-1.3,0
		s-0.8,0-1,0c-1.3,0-2.6,0.1-3.9,0.3s-2.7,0.5-4.1,0.8s-2.7,0.7-4,1s-2.6,0.7-3.8,1c-1.2,0.3-2.3,0.6-3.3,0.8
		c-1,0.2-1.9,0.3-2.6,0.3c-1.2,0-2.1-0.3-2.8-0.8s-1-1.2-1.1-1.9c0-0.5,0-1,0-1.7s0.1-1.4,0.2-2.1s0.3-1.6,0.4-2.4
		c0.2-0.9,0.3-1.7,0.5-2.6c0.1-0.6,0.3-1.4,0.5-2.3s0.4-1.9,0.6-3c0.2-1,0.3-2,0.5-3s0.3-1.8,0.4-2.4c0.2-1.4,0.4-2.7,0.6-3.9
		s0.4-2.3,0.5-3.3s0.3-2.1,0.5-3.2s0.3-2.3,0.4-3.7c0.1-1.5,0.2-2.8,0.2-4s0.2-2.1,0.4-2.9c0.2-0.8,0.5-1.4,1-1.8
		c0.5-0.4,1.2-0.6,2.1-0.6c0.6,0,1,0.1,1.4,0.3s0.7,0.5,0.9,0.9c0.2,0.3,0.4,0.8,0.5,1.2c0.1,0.5,0.2,0.9,0.2,1.4
		c0,0.1,0,0.6-0.2,1.3s-0.3,1.7-0.6,2.8s-0.5,2.3-0.8,3.7s-0.6,2.7-0.9,4.1c-0.3,1.4-0.6,2.8-0.8,4.1s-0.4,2.5-0.6,3.4
		c-0.1,0.9-0.3,1.8-0.4,2.8s-0.3,2-0.5,3s-0.3,2-0.5,3s-0.3,1.9-0.5,2.8c-0.1,0.9-0.2,1.7-0.3,2.4s-0.1,1.3,0,1.7
		c0,0.3,0.2,0.7,0.4,1c0.3,0.3,0.6,0.4,1,0.4c0.5,0,1.1-0.1,1.8-0.2s1.5-0.3,2.3-0.5s1.7-0.4,2.5-0.7s1.7-0.5,2.4-0.7
		c0.2-0.1,0.5-0.1,1-0.2s1.1-0.2,1.7-0.4c0.7-0.1,1.4-0.3,2.1-0.4s1.4-0.3,2.1-0.4s1.2-0.2,1.8-0.3s0.9-0.1,1.1-0.1
		c0.3,0,0.6,0,1.1-0.1s1-0.1,1.6-0.2s1.2-0.1,1.9-0.1c0.7,0,1.4,0.1,2.1,0.2c0.3,0.1,0.6,0.2,0.8,0.5s0.3,0.6,0.3,0.9s0,0.7-0.1,1.1
		C114.4,73.1,114.2,73.4,114,73.7z"/>
	<path class="st3" d="M164.5,57.1c0,0.2,0,0.5-0.1,0.8s-0.1,0.7-0.2,1c-0.1,0.3-0.2,0.7-0.4,1c-0.1,0.3-0.3,0.5-0.4,0.7
		c-0.1,0.2-0.3,0.4-0.5,0.6c-0.2,0.3-0.5,0.6-0.8,0.9s-0.6,0.7-0.9,1c-0.3,0.3-0.7,0.7-1,1c-1.2,1.1-2.4,2.2-3.6,3.3s-2.4,2-3.6,2.8
		c-1.2,0.8-2.5,1.4-3.9,1.9s-2.8,0.7-4.4,0.7c-0.7,0-1.5-0.1-2.2-0.4s-1.4-0.7-2.1-1.1c-0.6-0.5-1.2-1.1-1.7-1.8
		c-0.5-0.7-0.8-1.4-1-2.3c-0.6,0.6-1.2,1.2-1.8,1.8s-1.3,1.3-2,1.9c-0.7,0.7-1.4,1.3-2.1,1.9s-1.5,1.2-2.2,1.7
		c-0.4,0.3-0.9,0.6-1.6,0.9c-0.6,0.3-1.2,0.6-1.9,0.9c-0.7,0.3-1.3,0.5-2,0.7s-1.3,0.2-1.8,0.2c-0.8,0-1.5-0.2-2.1-0.8
		s-1.1-1.1-1.4-1.8c-0.4-0.7-0.7-1.5-0.9-2.3s-0.3-1.6-0.3-2.2c0-1.3,0.2-2.6,0.6-4s0.9-2.7,1.5-4s1.3-2.5,2-3.7s1.5-2.2,2.2-3.1
		c0.8-1,1.6-1.9,2.7-2.8c1-0.9,2.1-1.8,3.2-2.5s2.2-1.3,3.2-1.8s2-0.7,2.8-0.7c0.4,0,0.9,0,1.3,0s0.9,0,1.4,0.1s0.9,0.1,1.3,0.2
		c0.4,0.1,0.8,0.3,1.2,0.5c0.2,0.1,0.4,0.3,0.6,0.7c0.2,0.3,0.5,0.7,0.7,1.1c0.2,0.4,0.4,0.8,0.5,1.2s0.2,0.7,0.2,1
		c0,0.7-0.1,1.5-0.4,2.6c-0.3,1.4-0.6,2.6-0.9,3.7c-0.3,1.1-0.4,2.3-0.4,3.4c0,0.7,0.1,1.3,0.3,2c0.2,0.7,0.5,1.3,0.9,1.9
		s0.9,1,1.5,1.4s1.2,0.6,2,0.6c1.2,0,2.4-0.2,3.7-0.8s2.5-1.2,3.8-2.1s2.6-1.9,3.9-3s2.5-2.4,3.8-3.7c0.1-0.1,0.3-0.3,0.5-0.6
		s0.5-0.6,0.8-0.9s0.5-0.5,0.8-0.8s0.4-0.3,0.6-0.3C164.3,55.8,164.5,56.3,164.5,57.1z M138.2,54.6c0-0.3,0-0.8-0.1-1.2
		s-0.2-0.9-0.4-1.2s-0.5-0.5-0.8-0.5s-0.6,0-0.9,0c-0.7,0-1.4,0.1-2,0.3s-1.3,0.5-1.9,0.9s-1.2,0.8-1.8,1.3s-1.1,1-1.6,1.6
		c-0.4,0.5-0.9,1-1.4,1.7s-1,1.4-1.5,2.2s-0.9,1.6-1.4,2.5c-0.4,0.9-0.8,1.7-1.2,2.6c-0.3,0.9-0.6,1.7-0.8,2.5
		c-0.2,0.8-0.3,1.5-0.3,2.2c0,0.2,0,0.5,0.1,0.8s0.1,0.6,0.2,0.9s0.3,0.6,0.4,0.8c0.2,0.2,0.4,0.3,0.7,0.3c0.9,0,2-0.3,3.4-0.9
		c1.8-0.8,3.5-1.9,5-3.2s2.8-2.9,3.9-4.7C137.5,60.7,138.2,57.8,138.2,54.6z"/>
	<path class="st3" d="M211.2,56.1c0,0.4-0.1,0.8-0.2,1.1s-0.3,0.8-0.5,1.2s-0.4,0.8-0.6,1.1s-0.5,0.7-0.7,1c-0.6,0.9-1.2,1.8-2,2.7
		s-1.6,1.8-2.5,2.7c-0.9,0.9-1.8,1.7-2.7,2.4s-1.8,1.4-2.7,2c-0.7,0.5-1.4,0.9-2,1.3s-1.3,0.8-1.9,1.1c-0.6,0.3-1.3,0.5-2,0.7
		s-1.5,0.3-2.3,0.3c-1.6,0-3-0.4-4-1.2c-0.5-0.4-1-0.9-1.3-1.6c-0.4-0.7-0.7-1.4-1-2.2c-0.3-0.8-0.5-1.7-0.7-2.6s-0.4-1.8-0.5-2.7
		c-0.2-1.1-0.3-2.1-0.5-3s-0.3-1.6-0.6-2.2s-0.5-1.1-0.8-1.4s-0.7-0.5-1.1-0.5c-0.4,0-0.7,0-1.1,0.1c-0.3,0.1-0.7,0.2-1.1,0.5
		s-0.8,0.6-1.2,1s-0.9,1-1.5,1.7s-1.2,1.6-2,2.6s-1.6,2.2-2.6,3.7c-0.5,0.7-1.1,1.4-1.7,2.3s-1.4,1.6-2.1,2.4
		c-0.7,0.8-1.4,1.4-2.1,2s-1.3,0.9-1.8,1.1c-1.7-0.4-2.6-2.5-2.6-6.5c0-1,0.1-2.6,0.4-4.8c0.1-1,0.3-2,0.4-3c0.2-1,0.4-2.1,0.6-3.2
		c0.2-1,0.5-2.1,0.8-3.1s0.7-1.9,1.1-2.8c0.2-0.4,0.4-0.7,0.6-0.9s0.4-0.4,0.7-0.5c0.2-0.1,0.5-0.2,0.7-0.2s0.5,0,0.8,0
		s0.6,0.2,0.8,0.7c0.2,0.4,0.4,1,0.4,1.8c0,0.5,0,0.9-0.1,1.3c-0.1,0.4-0.2,0.8-0.3,1.3s-0.3,0.9-0.4,1.4c-0.2,0.5-0.3,1.1-0.5,1.7
		c-0.1,0.5-0.2,1.1-0.4,1.8s-0.3,1.3-0.4,2s-0.2,1.3-0.3,2s-0.1,1.2-0.1,1.7c0,0.3,0.1,0.7,0.2,1.1c0.6-0.1,1.5-0.9,2.7-2.5
		c0.6-0.8,1.4-1.7,2.1-2.7s1.6-2,2.5-3.2c0.7-0.9,1.3-1.7,2-2.4c0.7-0.8,1.3-1.4,2.1-2c0.7-0.6,1.5-1,2.3-1.3s1.7-0.5,2.6-0.5
		c1,0,1.9,0.2,2.6,0.7s1.2,1,1.6,1.8c0.4,0.8,0.7,1.7,1,2.8s0.4,2.3,0.6,3.6c0.1,1.1,0.2,2.2,0.3,3.3c0.1,1.1,0.3,2.1,0.6,2.9
		c0.3,0.9,0.8,1.6,1.4,2.1s1.4,0.8,2.5,0.8c0.9,0,1.7-0.2,2.7-0.6c0.9-0.4,1.9-0.9,2.9-1.6s2.1-1.5,3.2-2.5c1.1-1,2.2-2,3.4-3.1
		c0.4-0.4,0.9-1,1.5-1.6c0.5-0.7,1.1-1.3,1.6-1.9c0.5-0.6,1-1.1,1.5-1.6c0.4-0.4,0.8-0.7,1.1-0.7c0.1,0,0.3,0.1,0.6,0.2
		C211.1,55.6,211.2,55.8,211.2,56.1z"/>
	<path class="st3" d="M237.2,51.2c0,0.7-0.2,1.3-0.6,1.7s-0.9,0.7-1.4,1c-0.6,0.3-1.4,0.6-2.2,0.8s-1.6,0.5-2.4,0.6
		s-1.7,0.3-2.5,0.5s-1.6,0.2-2.4,0.3c-0.8,0.1-1.7,0.2-2.6,0.2s-1.8,0.2-2.7,0.2s-1.7,0.2-2.4,0.3s-1.3,0.3-1.8,0.4
		c-0.4,1.8-0.9,3.5-1.3,5.1c-0.5,1.6-0.9,3.2-1.2,4.9c-0.1,0.4-0.2,0.9-0.3,1.7s-0.2,1.5-0.4,2.3s-0.2,1.6-0.3,2.3
		c-0.1,0.7-0.1,1.2-0.1,1.6c0,0.8,0.1,1.4,0.4,1.8c0.3,0.4,0.5,0.7,0.8,1c0.3,0.2,0.6,0.5,0.8,0.7c0.3,0.2,0.4,0.5,0.4,1
		c0,0.3-0.1,0.5-0.4,0.8s-0.6,0.5-1,0.7s-0.8,0.3-1.2,0.5c-0.4,0.1-0.8,0.2-1.1,0.2c-0.6,0-1.1-0.2-1.5-0.5s-0.8-0.7-1.1-1.2
		s-0.6-1.1-0.7-1.7c-0.2-0.7-0.3-1.3-0.3-2c0-0.9,0.1-1.9,0.2-2.9c0.2-1,0.4-2.1,0.6-3.2s0.5-2.2,0.8-3.3c0.3-1.1,0.5-2.3,0.8-3.4
		c0.1-0.5,0.2-1,0.3-1.5s0.2-1,0.3-1.4s0.2-0.8,0.2-1.1s0.1-0.5,0.1-0.5c0-0.3-0.1-0.6-0.3-0.7c-0.2-0.2-0.5-0.2-0.8-0.2
		c-0.2,0-0.6,0-1.1,0.1s-1,0.1-1.5,0.2s-1,0.1-1.5,0.2s-0.8,0.1-1,0.1c-0.7,0-1.3,0-1.8-0.1s-0.9-0.2-1.2-0.5s-0.5-0.6-0.7-1
		s-0.2-1-0.2-1.6c0-0.3,0.1-0.5,0.4-0.7s0.6-0.3,0.9-0.3c0.4-0.1,0.8-0.1,1.2-0.1s0.8,0,1.1,0s0.7,0,1.3-0.1c0.6,0,1.2-0.1,1.8-0.2
		s1.2-0.1,1.8-0.2s1-0.1,1.3-0.1c0.1,0,0.3,0,0.4,0c0.2,0,0.3-0.1,0.5-0.2s0.3-0.2,0.5-0.4c0.1-0.2,0.3-0.5,0.4-0.9
		c0.1-0.6,0.3-1.3,0.5-2.1s0.4-1.7,0.6-2.5s0.4-1.7,0.6-2.5s0.4-1.5,0.5-2c0.2-0.5,0.3-1.1,0.5-1.8s0.2-1.3,0.4-1.9s0.2-1.2,0.4-1.8
		s0.3-1.1,0.5-1.6c0.4-1,1.1-1.5,2.1-1.5c1.5,0,2.2,0.8,2.2,2.4c0,1-0.2,2.2-0.6,3.5c-0.9,3-1.6,5.5-2.1,7.4
		c-0.4,1.9-0.7,3.2-0.7,3.9s0.4,1.1,1.1,1.1c0.9,0,1.7,0,2.5,0s1.6-0.1,2.4-0.2c0.8-0.1,1.6-0.2,2.5-0.2s1.9-0.2,3-0.3
		c0.8-0.1,1.5-0.2,2.3-0.3c0.7-0.1,1.4-0.3,2-0.4s1.1-0.2,1.6-0.4c0.5-0.1,0.9-0.2,1.2-0.2c0.2,0,0.4,0,0.6-0.1s0.4,0,0.5,0
		s0.3,0.1,0.4,0.2C237.2,50.7,237.2,50.9,237.2,51.2z"/>
	<path class="st3" d="M265.1,56.8c0,0.3-0.2,0.8-0.6,1.6c-1,1.5-2.2,3-3.4,4.4c-1.2,1.4-2.6,2.9-4,4.2s-2.9,2.6-4.5,3.7
		c-1.6,1.2-3.1,2.2-4.7,3c-1.6,0.8-3.1,1.5-4.7,1.9c-1.6,0.4-3.1,0.7-4.5,0.7c-3.1,0-5.6-0.9-7.3-2.8c-1.7-1.8-2.6-4.6-2.6-8.3
		c0-3.1,0.5-6.1,1.4-9c1-2.9,2.6-5.7,4.9-8.4c0.4-0.5,0.9-0.9,1.5-1.4c0.5-0.4,1.1-0.8,1.7-1.2s1.2-0.6,1.9-0.8s1.3-0.3,1.9-0.3
		c0.2,0,0.4,0,0.6,0.1s0.6,0.1,0.9,0.2c0.3,0.1,0.6,0.2,0.9,0.4s0.5,0.3,0.7,0.5c0.6,0.6,1,1.3,1.3,2s0.5,1.4,0.6,2.2
		c0,0.9-0.1,1.8-0.3,2.7s-0.7,1.8-1.2,2.7s-1.3,1.9-2.3,2.8s-2.1,2-3.4,3.2c-0.9,0.7-1.8,1.5-2.8,2.3c-1,0.9-2.3,1.8-3.7,2.7
		c0,1.9,0.6,3.4,1.7,4.4c1.1,1,2.7,1.5,4.7,1.5c1.1,0,2.3-0.2,3.4-0.4c1.1-0.3,2.3-0.7,3.4-1.2c1.1-0.5,2.2-1,3.2-1.7s2-1.3,2.9-1.9
		c1.7-1.2,3.2-2.4,4.5-3.7c1.3-1.3,2.7-2.5,4-3.8l1.6-1.6c1-0.8,1.7-1.3,2.1-1.3C265,56.2,265.1,56.4,265.1,56.8z M242.6,50.9
		c0-0.3-0.1-0.6-0.1-0.9c-0.1-0.3-0.2-0.5-0.3-0.8c-0.1-0.2-0.3-0.4-0.5-0.5s-0.4-0.2-0.6-0.2c-1,0.1-2.1,0.7-3.1,1.9
		s-2,2.8-2.9,4.8c-0.2,0.4-0.4,0.9-0.6,1.5s-0.3,1.1-0.5,1.7c-0.1,0.6-0.3,1.1-0.4,1.7c-0.1,0.5-0.2,1-0.3,1.5c1-0.8,2-1.5,2.8-2.1
		s1.7-1.3,2.4-2c0.5-0.4,1-0.9,1.4-1.4c0.5-0.5,0.9-1,1.3-1.6c0.4-0.5,0.7-1.1,1-1.7S242.6,51.5,242.6,50.9z"/>
	<path class="st3" d="M289.1,53.3c0,0.1,0,0.3,0,0.5s-0.1,0.5-0.1,0.7s-0.2,0.4-0.3,0.6s-0.2,0.3-0.4,0.3c-0.1,0-0.3,0-0.6,0
		c-0.3,0-0.6,0-0.9,0s-0.6,0-0.9,0s-0.5,0-0.6,0c-3.8,0.2-6.9,1.6-9.4,4.1s-4.6,5.8-6.4,9.9c-0.3,0.8-0.7,1.7-1,2.6
		s-0.6,1.9-0.9,2.9c-0.2,0.6-0.3,1-0.3,1.5s-0.2,0.9-0.3,1.3c0,0.2-0.2,0.3-0.5,0.5s-0.6,0.3-1,0.4s-0.7,0.2-1,0.3
		c-0.3,0.1-0.6,0.1-0.7,0.1c-1.4,0.1-2.1-1.3-2.3-4.2c-0.1-0.8-0.1-1.5-0.1-2.1s0-1.3,0.1-1.9s0.1-1.2,0.2-1.9s0.1-1.4,0.2-2.2
		c0.1-1,0.2-2.2,0.4-3.5c0.1-1.3,0.3-2.7,0.5-4c0.2-1.4,0.4-2.7,0.6-3.9s0.4-2.2,0.6-3.1c0.2-0.9,0.5-1.6,0.9-2.1s1-0.7,1.7-0.7
		c0.2,0,0.4,0,0.6,0.2s0.4,0.2,0.6,0.4s0.3,0.4,0.5,0.6s0.2,0.4,0.2,0.5c0,0.5,0,1,0,1.6s-0.1,1.2-0.2,1.8s-0.2,1.2-0.4,1.9
		c-0.1,0.6-0.3,1.2-0.4,1.8c-0.3,1.1-0.5,2.1-0.6,2.9s-0.3,1.6-0.4,2.3s-0.2,1.6-0.3,2.4c-0.1,0.9-0.2,1.9-0.4,3.2
		c0.3-0.8,0.6-1.4,0.9-1.9c0.2-0.5,0.5-1,0.7-1.4s0.4-0.8,0.5-1.1c0.2-0.3,0.4-0.7,0.5-1c0.2-0.3,0.4-0.7,0.6-1.1
		c0.2-0.4,0.5-0.9,0.9-1.5c1.4-2.3,2.9-4.2,4.4-5.6c1.6-1.5,3.1-2.5,4.5-3.1c1.6-0.8,3-1.2,4.1-1.3c0.5,0,1.1,0,1.8,0.1
		s1.4,0.2,2,0.4s1.2,0.5,1.7,0.8C288.9,52.4,289.1,52.8,289.1,53.3z"/>
	<path class="st3" d="M342.5,56.1c0,0.4-0.1,0.8-0.2,1.1c-0.1,0.4-0.3,0.8-0.5,1.2s-0.4,0.8-0.6,1.1c-0.2,0.4-0.5,0.7-0.7,1
		c-0.6,0.9-1.2,1.8-2,2.7s-1.6,1.8-2.5,2.7c-0.9,0.9-1.8,1.7-2.7,2.4s-1.8,1.4-2.7,2c-0.7,0.5-1.4,0.9-2,1.3s-1.3,0.8-1.9,1.1
		c-0.6,0.3-1.3,0.5-2,0.7s-1.5,0.3-2.3,0.3c-1.6,0-3-0.4-4-1.2c-0.5-0.4-1-0.9-1.3-1.6s-0.7-1.4-1-2.2c-0.3-0.8-0.5-1.7-0.7-2.6
		s-0.4-1.8-0.5-2.7c-0.2-1.1-0.3-2.1-0.5-3s-0.3-1.6-0.5-2.2c-0.2-0.6-0.5-1.1-0.8-1.4s-0.7-0.5-1.1-0.5s-0.7,0-1.1,0.1
		s-0.7,0.2-1,0.5s-0.8,0.6-1.2,1c-0.4,0.4-0.9,1-1.5,1.7s-1.2,1.6-2,2.6s-1.6,2.2-2.6,3.7c-0.5,0.7-1.1,1.4-1.7,2.3s-1.4,1.6-2,2.4
		c-0.7,0.8-1.4,1.4-2,2s-1.3,0.9-1.8,1.1c-1.7-0.4-2.6-2.5-2.6-6.5c0-1,0.1-2.6,0.4-4.8c0.1-1,0.3-2,0.4-3c0.2-1,0.4-2.1,0.6-3.2
		s0.5-2.1,0.8-3.1s0.7-1.9,1.1-2.8c0.2-0.4,0.4-0.7,0.6-0.9s0.4-0.4,0.7-0.5c0.2-0.1,0.5-0.2,0.7-0.2s0.5,0,0.8,0s0.6,0.2,0.8,0.7
		c0.2,0.4,0.4,1,0.4,1.8c0,0.5,0,0.9-0.1,1.3c-0.1,0.4-0.2,0.8-0.3,1.3c-0.1,0.4-0.3,0.9-0.4,1.4c-0.2,0.5-0.3,1.1-0.5,1.7
		c-0.1,0.5-0.2,1.1-0.4,1.8s-0.3,1.3-0.4,2s-0.2,1.3-0.3,2s-0.1,1.2-0.1,1.7c0,0.3,0.1,0.7,0.2,1.1c0.5-0.1,1.5-0.9,2.7-2.5
		c0.6-0.8,1.4-1.7,2.1-2.7c0.8-1,1.6-2,2.5-3.2c0.7-0.9,1.3-1.7,2-2.4c0.7-0.8,1.3-1.4,2-2s1.5-1,2.3-1.3s1.7-0.5,2.6-0.5
		c1,0,1.9,0.2,2.6,0.7s1.2,1,1.6,1.8s0.7,1.7,1,2.8c0.2,1.1,0.4,2.3,0.5,3.6c0.1,1.1,0.2,2.2,0.3,3.3c0.1,1.1,0.3,2.1,0.6,2.9
		s0.8,1.6,1.4,2.1s1.4,0.8,2.5,0.8c0.9,0,1.7-0.2,2.7-0.6s1.9-0.9,2.9-1.6s2.1-1.5,3.2-2.5s2.2-2,3.4-3.1c0.5-0.4,1-1,1.5-1.6
		c0.5-0.7,1.1-1.3,1.6-1.9s1-1.1,1.5-1.6c0.5-0.4,0.8-0.7,1.1-0.7c0.1,0,0.3,0.1,0.6,0.2C342.4,55.6,342.5,55.8,342.5,56.1z"/>
	<path class="st3" d="M356.8,70.9c0,0.4-0.1,1-0.3,1.9c-0.1,0.4-0.7,1.2-1.9,2.1c-1.2,0.9-2,1.4-2.4,1.4c-0.5,0-1-0.1-1.3-0.2
		s-0.6-0.3-0.7-0.7s-0.3-0.7-0.3-1.1s-0.1-1-0.1-1.7c0-1.1,0-1.9,0.1-2.4c0.1-0.9,1.5-1.3,4.2-1.3h0.6c0.6,0,1.1,0.3,1.7,1
		C356.7,70.2,356.8,70.5,356.8,70.9z"/>
</g>
<path class="st4" d="M53.4,49.1L35.2,73c-0.7,0.9-2.3,0.9-3,0L14,49.1c-0.4-0.5-0.4-1.1,0-1.6l18.2-21.9c0.7-0.9,2.2-0.9,3,0
	l18.2,21.9C53.8,47.9,53.8,48.6,53.4,49.1z"/>
<g>
	<path class="st4" d="M24.7,75.2c-5.8-5.7-10.9-11.9-16-18.1l-2.5-3.2c-1-1.2-2.1-2.6-2.3-4.2c-0.3-1.9,0.3-3.8,1.4-5.2L8,41.4
		c5.3-6.1,10.8-12,16.8-17.4c-4.3,6.9-9.1,13.3-14.1,19.7l-2.5,3.1c-0.6,0.7-0.8,1.5-0.6,2.3c0.1,1,1,1.8,1.6,2.7
		C14.7,59.3,20.1,67,24.7,75.2L24.7,75.2z"/>
</g>
<g>
	<path class="st4" d="M42,23.8c7,6.4,13.3,13.4,19.4,20.5c2.1,2.4,1.9,6.3-0.3,8.7l-0.6,0.8c-2.4,3.1-5.1,6.4-7.6,9.4
		c-3.5,4.1-7,8.1-10.9,11.9c4.8-8.5,10.4-16.5,16.2-24.3c1.1-1.2,1.5-2.8,0.4-4.2L56,43.5C51,37.1,46.2,30.7,42,23.8L42,23.8z"/>
</g>
<g>
	<path class="st5" d="M33.8,34.8L33.8,34.8L33.8,34.8L33.8,34.8L33.8,34.8c-5.7,6.9-0.1,13.6,0,13.7l0,0l0,0l0,0l0,0
		C33.8,48.4,39.5,41.7,33.8,34.8z"/>
	<path class="st5" d="M20.1,48.5L20.1,48.5L20.1,48.5L20.1,48.5L20.1,48.5c6.9,5.7,13.6,0.1,13.7,0l0,0l0,0l0,0l0,0
		C33.7,48.4,27,42.8,20.1,48.5z"/>
	<path class="st5" d="M33.8,62.1L33.8,62.1L33.8,62.1L33.8,62.1L33.8,62.1c5.7-6.9,0.1-13.6,0-13.7l0,0l0,0l0,0l0,0
		C33.7,48.5,28.1,55.2,33.8,62.1z"/>
	<path class="st5" d="M47.4,48.5C47.5,48.5,47.5,48.5,47.4,48.5C47.5,48.5,47.5,48.5,47.4,48.5C47.5,48.5,47.5,48.5,47.4,48.5
		C47.5,48.5,47.5,48.5,47.4,48.5c-6.9-5.7-13.6-0.1-13.7,0l0,0l0,0l0,0l0,0C33.8,48.5,40.5,54.2,47.4,48.5z"/>
</g>
</svg>
