<?xml version="1.0" encoding="utf-8"?>
<!-- Generator: Adobe Illustrator 26.5.0, SVG Export Plug-In . SVG Version: 6.00 Build 0)  -->
<svg version="1.1" id="Layer_1" xmlns="http://www.w3.org/2000/svg" xmlns:xlink="http://www.w3.org/1999/xlink" x="0px" y="0px"
	 viewBox="0 0 360 116.36" style="enable-background:new 0 0 360 116.36;" xml:space="preserve">
<style type="text/css">
	.st0{fill:none;stroke:#00865E;stroke-width:2.5;stroke-miterlimit:10;}
	.st1{fill:none;stroke:#00865E;stroke-width:2.4591;stroke-miterlimit:10;}
	.st2{fill:none;stroke:#00865E;stroke-width:2;stroke-miterlimit:10;}
	.st3{fill:#00865E;}
	.st4{fill:#F6CFD5;}
</style>
<path class="st0" d="M26.13,20.02H40.7c0,0,4.13-6.76-4.78-7.39C25.24,11.87,22.22,15.58,26.13,20.02z"/>
<path class="st1" d="M26.13,77.91c1.62,0.47,10.54,1.11,14.52-0.01c0.14-0.04,0.26,0.03,0.26,0.16c0.1,2.85,1.86,7.58-1.99,7.66
	c-3.96,0.08-10.03-0.05-10.03-0.05s-3.35,0.28-3.34-3.01c0-2.81,0.22-4.14,0.32-4.62C25.89,77.93,26.01,77.87,26.13,77.91z"/>
<path class="st2" d="M32.64,96.64h1.85c0.36,0,0.67,0.23,0.71,0.52l0.96,7.21c0.05,0.35-0.28,0.65-0.71,0.65h-3.9
	c-0.43,0-0.76-0.31-0.7-0.66l1.09-7.21C31.98,96.87,32.28,96.64,32.64,96.64z"/>
<ellipse class="st3" cx="33.51" cy="91.12" rx="2.76" ry="2.82"/>
<g>
	<path class="st3" d="M114.03,73.67c-0.39,0.49-0.9,0.89-1.51,1.2s-1.15,0.46-1.63,0.46c-0.28,0-0.62,0-1.03,0.01
		c-0.41,0.01-0.84,0.02-1.29,0.03c-0.44,0.01-0.87,0.02-1.29,0.03c-0.41,0.01-0.76,0.01-1.03,0.01c-1.26,0-2.58,0.1-3.94,0.31
		s-2.73,0.47-4.09,0.8s-2.7,0.67-4.03,1.03c-1.33,0.36-2.59,0.71-3.77,1.03c-1.18,0.33-2.28,0.59-3.29,0.8
		c-1.01,0.21-1.89,0.31-2.61,0.31c-1.18,0-2.1-0.27-2.76-0.81c-0.66-0.54-1.01-1.19-1.05-1.94c-0.04-0.47-0.04-1.03,0-1.68
		c0.04-0.65,0.12-1.36,0.24-2.13s0.26-1.58,0.41-2.44c0.16-0.86,0.33-1.73,0.53-2.61c0.12-0.59,0.27-1.36,0.46-2.3
		c0.19-0.95,0.37-1.94,0.55-2.97c0.18-1.03,0.34-2.04,0.5-3.01c0.16-0.98,0.29-1.78,0.38-2.41c0.22-1.44,0.42-2.73,0.61-3.89
		s0.36-2.26,0.53-3.32s0.33-2.14,0.49-3.24s0.31-2.32,0.44-3.68c0.12-1.48,0.2-2.8,0.25-3.96s0.18-2.14,0.38-2.94
		c0.21-0.8,0.54-1.41,1-1.83c0.46-0.42,1.18-0.64,2.14-0.64c0.55,0,1.01,0.11,1.37,0.33c0.36,0.22,0.66,0.5,0.9,0.86
		c0.24,0.35,0.41,0.76,0.53,1.21c0.12,0.45,0.2,0.91,0.24,1.36c0.02,0.14-0.04,0.58-0.19,1.33c-0.15,0.75-0.34,1.68-0.58,2.79
		s-0.5,2.35-0.8,3.71s-0.59,2.74-0.87,4.14c-0.29,1.4-0.55,2.75-0.8,4.06c-0.25,1.31-0.44,2.46-0.58,3.44
		c-0.12,0.87-0.26,1.8-0.43,2.79s-0.34,2-0.52,3.01s-0.35,2.02-0.53,3.03c-0.18,1-0.33,1.95-0.47,2.82
		c-0.14,0.88-0.24,1.66-0.31,2.36c-0.07,0.7-0.08,1.26-0.04,1.67c0.04,0.35,0.19,0.68,0.44,0.98c0.26,0.3,0.6,0.44,1.03,0.44
		c0.47,0,1.07-0.06,1.79-0.19s1.49-0.3,2.3-0.5s1.65-0.43,2.5-0.68c0.85-0.25,1.65-0.48,2.42-0.69c0.18-0.06,0.52-0.14,1.02-0.25
		c0.5-0.11,1.08-0.23,1.74-0.37c0.66-0.14,1.36-0.28,2.11-0.41s1.45-0.27,2.11-0.38c0.66-0.12,1.25-0.22,1.76-0.3
		c0.51-0.08,0.87-0.12,1.06-0.12c0.26,0,0.62-0.03,1.08-0.09s0.99-0.11,1.58-0.15s1.23-0.06,1.92-0.06c0.69,0,1.38,0.07,2.07,0.21
		c0.35,0.08,0.62,0.25,0.8,0.52s0.28,0.58,0.3,0.93c0.02,0.35-0.02,0.71-0.12,1.06C114.37,73.11,114.22,73.42,114.03,73.67z"/>
	<path class="st3" d="M164.52,57.07c0,0.24-0.03,0.52-0.09,0.84s-0.14,0.65-0.25,0.99c-0.11,0.33-0.23,0.65-0.35,0.96
		c-0.13,0.31-0.26,0.55-0.4,0.72c-0.12,0.16-0.29,0.37-0.52,0.64c-0.23,0.27-0.48,0.56-0.75,0.87s-0.58,0.65-0.9,0.99
		c-0.33,0.34-0.66,0.67-1.02,0.99c-1.22,1.12-2.42,2.21-3.59,3.26c-1.17,1.05-2.38,1.98-3.62,2.79c-1.24,0.81-2.54,1.45-3.89,1.94
		s-2.81,0.71-4.39,0.69c-0.73,0-1.46-0.13-2.2-0.4c-0.74-0.27-1.43-0.65-2.08-1.14c-0.65-0.49-1.21-1.08-1.68-1.77
		c-0.47-0.69-0.81-1.45-1-2.28c-0.57,0.59-1.17,1.21-1.8,1.85c-0.63,0.64-1.29,1.29-1.96,1.94c-0.68,0.65-1.38,1.28-2.11,1.89
		c-0.73,0.61-1.48,1.17-2.25,1.68c-0.43,0.28-0.95,0.57-1.55,0.89c-0.6,0.32-1.23,0.61-1.89,0.87c-0.66,0.27-1.32,0.48-1.98,0.65
		s-1.26,0.25-1.79,0.25c-0.81,0-1.5-0.25-2.08-0.75c-0.58-0.5-1.06-1.12-1.45-1.85c-0.38-0.73-0.67-1.51-0.86-2.33
		s-0.28-1.57-0.28-2.22c0-1.3,0.19-2.63,0.56-3.99c0.37-1.36,0.86-2.68,1.46-3.97c0.6-1.29,1.27-2.52,2.01-3.68
		c0.74-1.16,1.46-2.2,2.17-3.1c0.75-0.95,1.63-1.89,2.66-2.82c1.02-0.94,2.09-1.77,3.19-2.51c1.1-0.74,2.19-1.33,3.25-1.79
		s2.01-0.68,2.84-0.68c0.41,0,0.85,0,1.31,0s0.92,0.02,1.37,0.07c0.45,0.05,0.9,0.13,1.33,0.24c0.43,0.11,0.83,0.27,1.18,0.49
		c0.18,0.12,0.38,0.34,0.62,0.68c0.24,0.33,0.46,0.71,0.66,1.12c0.21,0.41,0.38,0.83,0.52,1.24c0.14,0.41,0.21,0.74,0.21,0.98
		c0,0.65-0.15,1.52-0.44,2.6c-0.32,1.36-0.61,2.6-0.87,3.71c-0.27,1.11-0.4,2.26-0.4,3.44c0,0.67,0.11,1.35,0.33,2.05
		c0.22,0.7,0.53,1.33,0.93,1.91c0.4,0.57,0.9,1.04,1.48,1.4c0.58,0.36,1.24,0.55,1.96,0.55c1.2,0,2.43-0.25,3.69-0.75
		s2.54-1.19,3.83-2.07c1.29-0.88,2.58-1.89,3.86-3.04s2.54-2.38,3.78-3.68c0.1-0.12,0.27-0.32,0.52-0.61
		c0.25-0.29,0.5-0.57,0.77-0.86c0.27-0.29,0.53-0.54,0.78-0.77s0.44-0.34,0.56-0.34C164.32,55.85,164.52,56.26,164.52,57.07z
		 M138.23,54.61c0-0.33-0.02-0.75-0.06-1.24c-0.04-0.49-0.17-0.9-0.38-1.21c-0.22-0.32-0.48-0.47-0.8-0.46s-0.63,0.01-0.95,0.01
		c-0.69,0-1.35,0.11-1.99,0.33c-0.64,0.22-1.27,0.52-1.88,0.9s-1.2,0.83-1.76,1.33c-0.56,0.5-1.11,1.03-1.64,1.58
		c-0.45,0.45-0.93,1.01-1.43,1.68c-0.5,0.67-0.99,1.4-1.48,2.2s-0.95,1.63-1.4,2.51c-0.45,0.88-0.85,1.74-1.18,2.6
		c-0.33,0.86-0.6,1.68-0.8,2.48c-0.2,0.8-0.3,1.52-0.3,2.17c0,0.2,0.02,0.46,0.07,0.78c0.05,0.33,0.13,0.64,0.24,0.95
		s0.26,0.57,0.44,0.78c0.19,0.22,0.42,0.33,0.69,0.33c0.91,0,2.04-0.29,3.4-0.86c1.85-0.79,3.53-1.87,5.04-3.24s2.79-2.95,3.86-4.74
		C137.46,60.73,138.23,57.77,138.23,54.61z"/>
	<path class="st3" d="M211.24,56.06c0,0.37-0.06,0.75-0.19,1.14s-0.29,0.77-0.47,1.15s-0.4,0.76-0.64,1.12
		c-0.24,0.36-0.46,0.71-0.68,1.05c-0.57,0.89-1.24,1.79-2.01,2.7c-0.77,0.92-1.59,1.81-2.47,2.67c-0.88,0.87-1.78,1.68-2.7,2.45
		s-1.83,1.45-2.72,2.04c-0.71,0.47-1.38,0.92-2.02,1.33c-0.64,0.41-1.29,0.77-1.94,1.06c-0.65,0.3-1.33,0.53-2.04,0.71
		c-0.71,0.18-1.49,0.27-2.33,0.27c-1.63,0-2.96-0.41-3.99-1.24c-0.51-0.41-0.96-0.95-1.34-1.61c-0.38-0.66-0.72-1.39-1-2.2
		c-0.29-0.81-0.53-1.66-0.74-2.57c-0.21-0.91-0.38-1.8-0.52-2.69c-0.18-1.1-0.34-2.09-0.5-2.97c-0.16-0.88-0.34-1.62-0.55-2.22
		s-0.46-1.06-0.75-1.39s-0.68-0.49-1.15-0.49c-0.37,0-0.73,0.04-1.06,0.12c-0.33,0.08-0.68,0.24-1.05,0.47s-0.76,0.57-1.2,1
		c-0.43,0.43-0.94,1-1.52,1.71c-0.58,0.71-1.25,1.58-1.99,2.6s-1.63,2.25-2.63,3.66c-0.49,0.69-1.07,1.45-1.74,2.28
		s-1.35,1.62-2.05,2.36c-0.7,0.75-1.38,1.41-2.05,1.98s-1.26,0.94-1.77,1.09c-1.73-0.37-2.6-2.53-2.6-6.47
		c0-1.04,0.12-2.63,0.35-4.76c0.12-0.97,0.26-1.97,0.41-3.03c0.16-1.05,0.35-2.11,0.59-3.16c0.24-1.05,0.51-2.08,0.81-3.07
		c0.31-0.99,0.66-1.92,1.08-2.76c0.2-0.39,0.4-0.7,0.62-0.93s0.44-0.39,0.66-0.5c0.23-0.11,0.46-0.18,0.71-0.21
		c0.25-0.03,0.5-0.04,0.75-0.04c0.32,0,0.6,0.22,0.84,0.65c0.25,0.43,0.37,1.03,0.37,1.8c0,0.47-0.04,0.92-0.12,1.33
		c-0.08,0.41-0.19,0.84-0.33,1.27c-0.14,0.43-0.29,0.9-0.44,1.4c-0.16,0.5-0.32,1.08-0.47,1.73c-0.12,0.53-0.25,1.12-0.4,1.77
		c-0.15,0.65-0.29,1.31-0.41,1.98s-0.24,1.32-0.33,1.96c-0.09,0.64-0.13,1.22-0.13,1.73c0,0.35,0.06,0.72,0.18,1.09
		c0.55-0.06,1.46-0.89,2.72-2.48c0.65-0.81,1.36-1.69,2.14-2.66c0.78-0.97,1.62-2.03,2.53-3.19c0.67-0.87,1.33-1.67,1.99-2.42
		c0.66-0.75,1.34-1.4,2.05-1.96c0.71-0.56,1.46-1,2.26-1.33s1.68-0.49,2.64-0.49c1.02,0,1.88,0.22,2.56,0.66
		c0.68,0.44,1.23,1.05,1.64,1.83c0.41,0.78,0.73,1.71,0.96,2.79s0.41,2.28,0.55,3.58c0.12,1.1,0.23,2.2,0.34,3.28
		c0.11,1.08,0.32,2.05,0.64,2.91c0.32,0.86,0.77,1.55,1.36,2.08c0.59,0.53,1.44,0.8,2.54,0.8c0.85,0,1.73-0.2,2.66-0.59
		c0.93-0.39,1.9-0.94,2.93-1.64c1.02-0.7,2.08-1.52,3.18-2.47c1.09-0.95,2.22-1.98,3.38-3.1c0.45-0.43,0.95-0.98,1.49-1.64
		c0.54-0.66,1.07-1.3,1.6-1.91c0.52-0.61,1.01-1.13,1.46-1.57c0.45-0.43,0.82-0.65,1.09-0.65c0.12,0,0.31,0.06,0.58,0.18
		C211.1,55.59,211.24,55.79,211.24,56.06z"/>
	<path class="st3" d="M237.21,51.16c0,0.73-0.2,1.29-0.59,1.67s-0.85,0.72-1.36,1.02c-0.65,0.3-1.37,0.56-2.17,0.8
		s-1.62,0.45-2.45,0.64s-1.68,0.34-2.53,0.47c-0.85,0.13-1.65,0.23-2.42,0.31c-0.83,0.08-1.7,0.16-2.63,0.24s-1.82,0.16-2.69,0.25
		c-0.87,0.09-1.67,0.19-2.41,0.31c-0.74,0.12-1.33,0.27-1.79,0.44c-0.41,1.79-0.85,3.5-1.31,5.13c-0.46,1.63-0.85,3.25-1.17,4.86
		c-0.08,0.37-0.18,0.94-0.31,1.68s-0.25,1.53-0.37,2.35c-0.12,0.82-0.22,1.59-0.31,2.3c-0.09,0.72-0.13,1.24-0.13,1.55
		c0,0.81,0.13,1.41,0.38,1.82c0.26,0.4,0.54,0.73,0.84,0.98c0.31,0.25,0.59,0.48,0.84,0.69c0.26,0.22,0.38,0.54,0.38,0.98
		c0,0.28-0.13,0.54-0.4,0.8s-0.59,0.48-0.96,0.68c-0.37,0.2-0.77,0.35-1.2,0.46c-0.42,0.11-0.79,0.16-1.11,0.16
		c-0.57,0-1.08-0.16-1.54-0.47c-0.45-0.32-0.84-0.72-1.15-1.23s-0.56-1.08-0.74-1.73c-0.18-0.65-0.27-1.32-0.27-2.01
		c0-0.91,0.08-1.88,0.24-2.91c0.16-1.03,0.35-2.09,0.59-3.18s0.49-2.19,0.75-3.32c0.27-1.13,0.52-2.26,0.75-3.38
		c0.1-0.47,0.2-0.96,0.31-1.46c0.11-0.5,0.21-0.98,0.3-1.42c0.09-0.44,0.16-0.81,0.22-1.11s0.09-0.47,0.09-0.53
		c0-0.32-0.11-0.56-0.34-0.72c-0.23-0.17-0.5-0.25-0.81-0.25c-0.24,0-0.59,0.02-1.06,0.06c-0.47,0.04-0.97,0.09-1.49,0.15
		c-0.52,0.06-1.02,0.11-1.49,0.15c-0.47,0.04-0.82,0.06-1.03,0.06c-0.71,0-1.31-0.04-1.8-0.13c-0.49-0.09-0.89-0.25-1.2-0.49
		c-0.31-0.24-0.53-0.57-0.68-0.99s-0.22-0.97-0.22-1.64c0-0.28,0.13-0.49,0.38-0.65s0.57-0.27,0.93-0.34
		c0.36-0.07,0.75-0.11,1.17-0.12c0.41-0.01,0.78-0.01,1.09-0.01c0.26,0,0.67-0.02,1.26-0.07c0.58-0.05,1.19-0.1,1.83-0.16
		c0.64-0.06,1.25-0.11,1.83-0.16s1-0.07,1.26-0.07c0.12,0,0.26-0.01,0.41-0.03c0.16-0.02,0.32-0.07,0.49-0.16
		c0.17-0.09,0.32-0.24,0.46-0.44c0.14-0.21,0.26-0.5,0.35-0.87c0.14-0.61,0.31-1.32,0.5-2.14c0.2-0.82,0.4-1.65,0.61-2.51
		s0.41-1.68,0.61-2.48s0.36-1.48,0.5-2.05c0.18-0.55,0.33-1.14,0.46-1.77c0.13-0.63,0.25-1.26,0.35-1.89s0.23-1.24,0.37-1.83
		s0.32-1.13,0.53-1.63c0.43-1.02,1.13-1.54,2.1-1.54c1.46,0,2.19,0.81,2.19,2.42c0,1-0.22,2.16-0.65,3.46
		c-0.95,2.99-1.64,5.46-2.1,7.4c-0.45,1.94-0.68,3.25-0.68,3.92c0,0.73,0.36,1.09,1.09,1.09c0.89,0,1.72-0.01,2.5-0.04
		c0.78-0.03,1.57-0.08,2.36-0.15c0.8-0.07,1.64-0.15,2.53-0.25c0.89-0.1,1.88-0.21,2.98-0.33c0.79-0.1,1.54-0.22,2.26-0.35
		c0.72-0.14,1.38-0.27,1.99-0.4c0.61-0.13,1.15-0.25,1.63-0.37c0.47-0.12,0.87-0.2,1.18-0.24c0.22-0.02,0.43-0.05,0.64-0.09
		c0.21-0.04,0.38-0.04,0.53-0.01c0.15,0.03,0.27,0.11,0.35,0.24C237.16,50.65,237.21,50.86,237.21,51.16z"/>
	<path class="st3" d="M265.13,56.8c0,0.3-0.22,0.82-0.65,1.57c-1.02,1.48-2.17,2.95-3.44,4.43c-1.27,1.48-2.62,2.88-4.05,4.21
		c-1.43,1.33-2.92,2.57-4.46,3.72c-1.55,1.15-3.11,2.15-4.68,2.98c-1.58,0.84-3.15,1.48-4.71,1.94c-1.57,0.45-3.08,0.67-4.54,0.65
		c-3.15,0-5.6-0.92-7.34-2.75c-1.74-1.83-2.61-4.6-2.61-8.3c0-3.09,0.48-6.1,1.43-9.01c0.96-2.92,2.59-5.72,4.89-8.42
		c0.43-0.47,0.92-0.93,1.46-1.36c0.54-0.43,1.11-0.82,1.71-1.15c0.6-0.33,1.22-0.6,1.86-0.8c0.64-0.2,1.29-0.32,1.94-0.35
		c0.16,0,0.37,0.02,0.65,0.06c0.28,0.04,0.57,0.11,0.89,0.21c0.32,0.1,0.62,0.22,0.92,0.37s0.53,0.33,0.71,0.55
		c0.55,0.63,0.99,1.28,1.31,1.95c0.33,0.67,0.51,1.41,0.55,2.22c0.04,0.91-0.06,1.8-0.31,2.67c-0.25,0.88-0.66,1.77-1.24,2.69
		c-0.58,0.92-1.34,1.86-2.29,2.84c-0.95,0.98-2.09,2.02-3.43,3.15c-0.85,0.71-1.79,1.49-2.82,2.35c-1.03,0.86-2.28,1.76-3.74,2.7
		c0,1.91,0.58,3.36,1.73,4.36c1.15,0.99,2.73,1.49,4.74,1.49c1.12,0,2.26-0.15,3.4-0.44c1.14-0.3,2.27-0.68,3.37-1.17
		c1.1-0.48,2.17-1.03,3.21-1.65s2-1.26,2.91-1.91c1.67-1.22,3.19-2.44,4.55-3.65c1.36-1.21,2.71-2.49,4.05-3.83l1.6-1.6
		c0.97-0.85,1.66-1.27,2.1-1.27C265.01,56.24,265.13,56.43,265.13,56.8z M242.56,50.92c-0.02-0.3-0.06-0.59-0.13-0.87
		c-0.07-0.29-0.17-0.54-0.31-0.75c-0.14-0.22-0.3-0.39-0.47-0.52c-0.18-0.13-0.38-0.19-0.62-0.19c-1.04,0.06-2.09,0.69-3.13,1.91
		c-1.04,1.21-2.03,2.81-2.95,4.8c-0.22,0.43-0.41,0.92-0.58,1.46s-0.33,1.09-0.47,1.65c-0.15,0.56-0.28,1.12-0.38,1.67
		c-0.11,0.55-0.2,1.04-0.28,1.48c1.02-0.77,1.97-1.48,2.84-2.13c0.87-0.65,1.67-1.32,2.42-2.01c0.47-0.43,0.96-0.9,1.45-1.4
		c0.49-0.5,0.94-1.03,1.34-1.58c0.4-0.55,0.72-1.12,0.96-1.71S242.58,51.53,242.56,50.92z"/>
	<path class="st3" d="M289.09,53.34c0,0.12-0.01,0.29-0.03,0.52c-0.02,0.23-0.07,0.45-0.15,0.68c-0.08,0.23-0.17,0.43-0.28,0.61
		c-0.11,0.18-0.25,0.27-0.43,0.27c-0.12,0-0.32,0-0.59-0.01c-0.28-0.01-0.57-0.02-0.87-0.04c-0.31-0.02-0.6-0.03-0.87-0.04
		c-0.28-0.01-0.47-0.01-0.59-0.01c-3.76,0.24-6.89,1.62-9.4,4.14c-2.46,2.46-4.59,5.75-6.38,9.87c-0.33,0.85-0.66,1.72-0.99,2.63
		c-0.33,0.91-0.64,1.86-0.93,2.87c-0.16,0.55-0.27,1.04-0.34,1.46c-0.07,0.42-0.18,0.87-0.34,1.34c-0.04,0.16-0.21,0.31-0.5,0.46
		s-0.63,0.28-0.99,0.4c-0.36,0.12-0.71,0.22-1.05,0.3c-0.33,0.08-0.56,0.12-0.68,0.12c-1.36,0.08-2.13-1.33-2.3-4.23
		c-0.06-0.79-0.08-1.5-0.07-2.14c0.01-0.64,0.03-1.26,0.07-1.86s0.09-1.23,0.16-1.89s0.14-1.4,0.22-2.23
		c0.1-1.02,0.22-2.21,0.35-3.55c0.14-1.34,0.3-2.69,0.47-4.05c0.18-1.36,0.36-2.65,0.56-3.89s0.4-2.25,0.62-3.06
		c0.22-0.93,0.52-1.62,0.9-2.07c0.38-0.45,0.95-0.7,1.7-0.74c0.2,0,0.41,0.05,0.64,0.16s0.43,0.25,0.62,0.43
		c0.19,0.18,0.34,0.36,0.47,0.56c0.13,0.2,0.2,0.37,0.22,0.53c0.02,0.49,0.01,1.03-0.03,1.61c-0.04,0.58-0.11,1.18-0.21,1.8
		c-0.1,0.62-0.22,1.25-0.35,1.88c-0.14,0.63-0.28,1.23-0.41,1.8c-0.28,1.12-0.49,2.08-0.64,2.88s-0.27,1.57-0.37,2.32
		c-0.1,0.75-0.2,1.55-0.3,2.41c-0.1,0.86-0.23,1.92-0.38,3.18c0.33-0.75,0.63-1.39,0.87-1.92c0.25-0.53,0.47-1,0.66-1.4
		c0.2-0.4,0.38-0.76,0.55-1.08c0.17-0.32,0.35-0.65,0.55-0.99c0.2-0.34,0.41-0.72,0.65-1.14c0.24-0.41,0.53-0.92,0.89-1.51
		c1.38-2.28,2.86-4.15,4.43-5.6c1.58-1.45,3.09-2.49,4.55-3.12c1.65-0.79,3.01-1.21,4.08-1.27c0.51-0.02,1.12,0.01,1.83,0.09
		s1.39,0.23,2.04,0.44c0.65,0.22,1.21,0.5,1.67,0.84C288.86,52.43,289.09,52.85,289.09,53.34z"/>
	<path class="st3" d="M342.51,56.06c0,0.37-0.06,0.75-0.19,1.14c-0.13,0.38-0.29,0.77-0.47,1.15s-0.4,0.76-0.64,1.12
		c-0.24,0.36-0.46,0.71-0.68,1.05c-0.57,0.89-1.24,1.79-2.01,2.7c-0.77,0.92-1.59,1.81-2.47,2.67c-0.88,0.87-1.78,1.68-2.7,2.45
		s-1.83,1.45-2.72,2.04c-0.71,0.47-1.38,0.92-2.02,1.33c-0.64,0.41-1.29,0.77-1.94,1.06c-0.65,0.3-1.33,0.53-2.04,0.71
		c-0.71,0.18-1.49,0.27-2.33,0.27c-1.63,0-2.96-0.41-3.99-1.24c-0.51-0.41-0.96-0.95-1.34-1.61c-0.38-0.66-0.72-1.39-1-2.2
		c-0.29-0.81-0.53-1.66-0.74-2.57c-0.21-0.91-0.38-1.8-0.52-2.69c-0.18-1.1-0.34-2.09-0.5-2.97c-0.16-0.88-0.34-1.62-0.55-2.22
		c-0.21-0.6-0.46-1.06-0.75-1.39s-0.68-0.49-1.15-0.49c-0.37,0-0.73,0.04-1.06,0.12s-0.68,0.24-1.05,0.47s-0.76,0.57-1.2,1
		c-0.43,0.43-0.94,1-1.52,1.71c-0.58,0.71-1.25,1.58-1.99,2.6s-1.63,2.25-2.63,3.66c-0.49,0.69-1.07,1.45-1.74,2.28
		s-1.35,1.62-2.05,2.36c-0.7,0.75-1.38,1.41-2.05,1.98s-1.26,0.94-1.77,1.09c-1.73-0.37-2.6-2.53-2.6-6.47
		c0-1.04,0.12-2.63,0.35-4.76c0.12-0.97,0.26-1.97,0.41-3.03c0.16-1.05,0.35-2.11,0.59-3.16c0.24-1.05,0.51-2.08,0.81-3.07
		c0.31-0.99,0.66-1.92,1.08-2.76c0.2-0.39,0.4-0.7,0.62-0.93s0.44-0.39,0.66-0.5c0.23-0.11,0.46-0.18,0.71-0.21
		c0.25-0.03,0.5-0.04,0.75-0.04c0.32,0,0.6,0.22,0.84,0.65c0.25,0.43,0.37,1.03,0.37,1.8c0,0.47-0.04,0.92-0.12,1.33
		c-0.08,0.41-0.19,0.84-0.33,1.27c-0.14,0.43-0.29,0.9-0.44,1.4c-0.16,0.5-0.32,1.08-0.47,1.73c-0.12,0.53-0.25,1.12-0.4,1.77
		c-0.15,0.65-0.29,1.31-0.41,1.98c-0.13,0.67-0.24,1.32-0.33,1.96c-0.09,0.64-0.13,1.22-0.13,1.73c0,0.35,0.06,0.72,0.18,1.09
		c0.55-0.06,1.46-0.89,2.72-2.48c0.65-0.81,1.36-1.69,2.14-2.66c0.78-0.97,1.62-2.03,2.53-3.19c0.67-0.87,1.33-1.67,1.99-2.42
		c0.66-0.75,1.34-1.4,2.05-1.96c0.71-0.56,1.46-1,2.26-1.33c0.8-0.33,1.68-0.49,2.64-0.49c1.02,0,1.88,0.22,2.56,0.66
		c0.68,0.44,1.23,1.05,1.64,1.83s0.73,1.71,0.96,2.79c0.23,1.08,0.41,2.28,0.55,3.58c0.12,1.1,0.23,2.2,0.34,3.28
		c0.11,1.08,0.32,2.05,0.64,2.91c0.32,0.86,0.77,1.55,1.36,2.08c0.59,0.53,1.44,0.8,2.54,0.8c0.85,0,1.73-0.2,2.66-0.59
		c0.93-0.39,1.9-0.94,2.93-1.64c1.02-0.7,2.08-1.52,3.18-2.47c1.09-0.95,2.22-1.98,3.38-3.1c0.45-0.43,0.95-0.98,1.49-1.64
		c0.54-0.66,1.07-1.3,1.6-1.91s1.01-1.13,1.46-1.57c0.45-0.43,0.82-0.65,1.09-0.65c0.12,0,0.31,0.06,0.58,0.18
		C342.38,55.59,342.51,55.79,342.51,56.06z"/>
	<path class="st3" d="M356.79,70.95c0,0.39-0.09,1.04-0.27,1.95c-0.1,0.45-0.72,1.15-1.86,2.1c-1.16,0.93-1.97,1.39-2.42,1.39
		c-0.53,0-0.96-0.07-1.27-0.21c-0.32-0.14-0.56-0.35-0.74-0.65c-0.18-0.3-0.29-0.67-0.34-1.12c-0.05-0.45-0.07-1-0.07-1.65
		c0-1.14,0.04-1.94,0.12-2.39c0.08-0.89,1.48-1.33,4.2-1.33h0.65c0.57,0,1.15,0.33,1.74,1C356.7,70.21,356.79,70.52,356.79,70.95z"
		/>
</g>
<path class="st3" d="M53.41,49.07l-18.2,23.95c-0.71,0.93-2.34,0.93-3.05,0l-18.2-23.95c-0.38-0.5-0.37-1.14,0.04-1.63l18.2-21.92
	c0.71-0.86,2.25-0.86,2.96,0l18.2,21.92C53.78,47.92,53.79,48.57,53.41,49.07z"/>
<g>
	<path class="st3" d="M24.67,75.22c-5.76-5.71-10.93-11.86-16-18.14c0,0-2.49-3.16-2.49-3.16c-0.98-1.23-2.08-2.58-2.33-4.25
		c-0.34-1.87,0.26-3.85,1.4-5.23l2.65-3.08c5.33-6.06,10.76-11.98,16.77-17.43c-4.26,6.91-9.07,13.33-14.05,19.69
		c0,0-2.48,3.11-2.48,3.11c-0.55,0.71-0.76,1.53-0.62,2.31c0.13,0.99,1.01,1.83,1.58,2.67C14.66,59.28,20.06,66.99,24.67,75.22
		L24.67,75.22z"/>
</g>
<g>
	<path class="st3" d="M41.95,23.77c6.98,6.36,13.29,13.37,19.42,20.52c2.11,2.42,1.88,6.35-0.31,8.68c0,0-0.61,0.8-0.61,0.8
		c-2.41,3.06-5.07,6.43-7.6,9.37c-3.46,4.1-7.03,8.13-10.89,11.93c4.77-8.52,10.37-16.5,16.17-24.33c1.1-1.23,1.45-2.79,0.37-4.17
		c0,0-2.48-3.11-2.48-3.11C51.03,37.1,46.22,30.68,41.95,23.77L41.95,23.77z"/>
</g>
<g>
	<path class="st4" d="M33.78,34.79C33.78,34.79,33.78,34.79,33.78,34.79C33.78,34.78,33.77,34.79,33.78,34.79
		C33.77,34.79,33.77,34.79,33.78,34.79C33.77,34.79,33.77,34.79,33.78,34.79c-5.7,6.93-0.07,13.59,0,13.66c0,0,0,0.01,0,0.01
		s0,0,0,0l0,0c0,0,0,0,0,0C33.84,48.38,39.47,41.72,33.78,34.79z"/>
	<path class="st4" d="M20.1,48.46C20.1,48.46,20.1,48.46,20.1,48.46C20.1,48.46,20.1,48.46,20.1,48.46
		C20.1,48.46,20.1,48.46,20.1,48.46C20.1,48.46,20.1,48.46,20.1,48.46c6.93,5.7,13.59,0.07,13.66,0c0,0,0.01,0,0.01,0s0,0,0,0l0,0
		c0,0,0,0,0,0C33.7,48.39,27.03,42.76,20.1,48.46z"/>
	<path class="st4" d="M33.77,62.13C33.77,62.13,33.77,62.13,33.77,62.13C33.77,62.14,33.77,62.13,33.77,62.13
		C33.77,62.13,33.77,62.13,33.77,62.13C33.77,62.13,33.77,62.13,33.77,62.13c5.7-6.93,0.07-13.59,0-13.66c0,0,0-0.01,0-0.01s0,0,0,0
		l0,0c0,0,0,0,0,0C33.71,48.54,28.07,55.2,33.77,62.13z"/>
	<path class="st4" d="M47.44,48.46C47.45,48.46,47.45,48.46,47.44,48.46C47.45,48.46,47.45,48.46,47.44,48.46
		C47.45,48.46,47.45,48.46,47.44,48.46C47.45,48.46,47.45,48.46,47.44,48.46c-6.93-5.7-13.59-0.07-13.66,0c0,0-0.01,0-0.01,0
		s0,0,0,0l0,0c0,0,0,0,0,0C33.85,48.53,40.51,54.16,47.44,48.46z"/>
</g>
</svg>
