<?xml version="1.0" encoding="UTF-8"?>
<svg id="Layer_1" data-name="Layer 1" xmlns="http://www.w3.org/2000/svg" viewBox="0 0 274.7 210.78">
  <defs>
    <style>
      .cls-1 {
        fill: none;
        stroke: #fdb740;
        stroke-miterlimit: 10;
        stroke-width: 3px;
      }

      .cls-2 {
        fill: #ffecd1;
      }

      .cls-3 {
        fill: #fdb740;
      }
    </style>
  </defs>
  <g>
    <path class="cls-2" d="M91.79,73.4v28.64s-.1,25.37,27.32,27.5,37.81-3.53,37.81-3.53c0,0,14.47-5.51,15.84-21.14s0-33.34,0-33.34c0,0-6.01-5.82-10.9,2.87s-8.53,6.98-14.11-.59c-2.66-3.54-5.53-.78-9.21,3.33-5.14,5.73-9.94-1.87-13.99-2.2-4.36-.35-8.21,3.2-10.69,2.36-3.28-1.1-4.16-9.39-8.58-4.68s-6.57,4.11-10.15,2.36c-1.02-.5-3.35-1.59-3.35-1.59Z"/>
    <path class="cls-3" d="M39.04,133.04c-12.12,0-25.18-1.22-36.6-5.8-1.71-.69-2.6-2.59-2.06-4.35h0c.61-1.97,2.76-3.04,4.68-2.28,10.13,4.03,22.28,5.45,33.98,5.45,16.53,0,36.27-3.22,36.27-16.42,0-9.54-11.09-11.98-34.72-14.09C15.42,93.44,0,89.89,0,75.14s19.96-20.85,44.37-20.85c11.71,0,23.68,1.26,33.41,4.77,1.76,.63,2.7,2.55,2.18,4.34v.03c-.58,1.98-2.7,3.04-4.65,2.35-9.51-3.36-20.01-4.5-30.94-4.5-13.53,0-36.16,1.66-36.16,13.31,0,8.54,9.32,11.31,32.83,13.42,24.62,2,42.37,4.99,42.37,20.74,0,19.3-23.51,24.29-44.37,24.29Z"/>
    <path class="cls-3" d="M263.86,131.09l-9.04-14.75c-.74-1.21-2.05-1.94-3.47-1.94h-55.23c-1.42,0-2.73,.74-3.47,1.94l-9.04,14.75c-.74,1.21-2.05,1.94-3.47,1.94h0c-3.2,0-5.15-3.53-3.44-6.24l42.9-68.17c.75-1.18,2.05-1.9,3.44-1.9h1.71c1.4,0,2.7,.72,3.45,1.91l42.8,68.17c1.7,2.71-.25,6.23-3.45,6.23h-.23c-1.42,0-2.73-.74-3.47-1.94Zm-43.54-59.54l-18.32,29.66c-1.67,2.71,.28,6.21,3.46,6.21h36.55c3.18,0,5.13-3.49,3.47-6.2l-18.24-29.66c-1.59-2.58-5.34-2.58-6.93,0Z"/>
    <path class="cls-3" d="M176.5,103.09c0,23.18-24.73,29.95-44.26,29.95s-44.14-6.77-44.14-29.95V60.27c0-2.21,1.79-3.99,3.99-3.99h0c2.21,0,3.99,1.79,3.99,3.99v41.7c0,17.97,19.08,24.4,36.16,24.4,17.19,.11,36.27-6.43,36.27-24.4V60.27c0-2.21,1.79-3.99,3.99-3.99h0c2.21,0,3.99,1.79,3.99,3.99v42.81Z"/>
    <path class="cls-3" d="M91.1,49.3h81.67c1.95,0,3.6-1.65,3.6-3.6s-1.65-3.6-3.6-3.6H91.1c-1.95,0-3.6,1.65-3.6,3.6s1.65,3.6,3.6,3.6h0Z"/>
    <g>
      <path class="cls-3" d="M135.19,4.56c-1.79,9.46-3.59,18.92-5.38,28.39-.26,1.35-.51,2.7-.77,4.06-.36,1.89,2.53,2.7,2.89,.8,1.79-9.46,3.59-18.92,5.38-28.39,.26-1.35,.51-2.7,.77-4.06,.36-1.89-2.53-2.7-2.89-.8h0Z"/>
      <path class="cls-3" d="M143.05,6.05c-1.73,9.1-3.45,18.21-5.18,27.31-.24,1.29-.49,2.57-.73,3.86-.36,1.89,2.53,2.7,2.89,.8,1.73-9.1,3.45-18.21,5.18-27.31,.24-1.29,.49-2.57,.73-3.86,.36-1.89-2.53-2.7-2.89-.8h0Z"/>
      <ellipse class="cls-1" cx="140.72" cy="4.29" rx="2.69" ry="4.78" transform="translate(110.28 141.74) rotate(-79.26)"/>
    </g>
    <circle class="cls-3" cx="111.81" cy="88.99" r="5.67"/>
    <circle class="cls-3" cx="156.2" cy="90.02" r="5.67"/>
    <circle class="cls-3" cx="147.14" cy="113.74" r="5.67"/>
    <circle class="cls-3" cx="114.68" cy="114.35" r="5.67"/>
    <circle class="cls-3" cx="132.3" cy="99.19" r="5.67"/>
  </g>
  <g>
    <path class="cls-3" d="M267.05,208.74l-8.9-14.51c-.73-1.19-2.02-1.91-3.41-1.91h-54.33c-1.39,0-2.69,.72-3.41,1.91l-8.9,14.51c-.73,1.19-2.02,1.91-3.41,1.91h0c-3.15,0-5.07-3.47-3.39-6.14l42.21-67.06c.73-1.16,2.01-1.87,3.39-1.87h1.69c1.38,0,2.66,.71,3.39,1.87l42.11,67.06c1.67,2.67-.24,6.13-3.39,6.13h-.23c-1.39,0-2.69-.72-3.41-1.91Zm-42.83-58.58l-18.02,29.17c-1.65,2.67,.27,6.11,3.41,6.11h35.96c3.13,0,5.05-3.43,3.41-6.1l-17.94-29.17c-1.56-2.54-5.25-2.54-6.82,0Z"/>
    <path class="cls-3" d="M95.13,207.27v-66.78c0-1.87,1.51-3.38,3.38-3.38h70.6c1.87,0,3.38,1.51,3.38,3.38v.11c0,1.87-1.51,3.38-3.38,3.38h-62.74c-1.87,0-3.38,1.51-3.38,3.38v15.28c0,1.87,1.51,3.38,3.38,3.38h62.74c1.87,0,3.38,1.51,3.38,3.38h0c0,1.87-1.51,3.38-3.38,3.38h-62.74c-1.87,0-3.38,1.51-3.38,3.38v24.22c0,1.87,1.51,3.38,3.38,3.38h62.74c1.87,0,3.38,1.51,3.38,3.38v.11c0,1.87-1.51,3.38-3.38,3.38H98.51c-1.87,0-3.38-1.51-3.38-3.38Z"/>
    <path class="cls-3" d="M48.94,147.51v59.83c0,1.9-1.54,3.44-3.44,3.44h-.34c-1.9,0-3.44-1.54-3.44-3.44v-59.83c0-1.9-1.54-3.44-3.44-3.44H4.67c-1.9,0-3.44-1.54-3.44-3.44h0c0-1.9,1.54-3.44,3.44-3.44H85.88c1.9,0,3.44,1.54,3.44,3.44h0c0,1.9-1.54,3.44-3.44,3.44H52.37c-1.9,0-3.44,1.54-3.44,3.44Z"/>
  </g>
</svg>